<?xml version="1.0" standalone="no"?>
<!DOCTYPE svg PUBLIC "-//W3C//DTD SVG 20010904//EN"
 "http://www.w3.org/TR/2001/REC-SVG-20010904/DTD/svg10.dtd">
<svg version="1.0" xmlns="http://www.w3.org/2000/svg"
 width="32.000000pt" height="32.000000pt" viewBox="0 0 32.000000 32.000000"
 preserveAspectRatio="xMidYMid meet">

<g transform="translate(0.000000,32.000000) scale(0.100000,-0.100000)"
fill="#000000" stroke="none">
<path d="M148 303 c-1 -5 -21 -17 -43 -28 -27 -13 -47 -33 -60 -60 -11 -22
-24 -43 -29 -46 -5 -4 -3 -13 3 -20 7 -8 20 -30 29 -49 10 -21 31 -42 52 -52
19 -9 41 -22 48 -28 9 -8 15 -8 25 0 6 6 28 19 47 28 21 10 42 31 52 52 9 19
22 41 28 48 8 9 8 15 0 25 -6 6 -19 28 -28 47 -10 21 -31 42 -52 52 -19 9 -40
22 -47 27 -14 13 -20 14 -25 4z m73 -56 c98 -66 28 -220 -88 -191 -42 10 -83
60 -83 101 0 57 53 112 111 113 14 0 41 -10 60 -23z"/>
<path d="M126 194 c-21 -21 -20 -47 2 -67 23 -21 46 -22 66 -1 31 30 9 84 -34
84 -10 0 -26 -7 -34 -16z m59 -34 c0 -18 -6 -26 -23 -28 -13 -2 -25 3 -28 12
-10 26 4 48 28 44 17 -2 23 -10 23 -28z"/>
</g>
</svg>
